# xmcd
#
# Track frame offsets: 
#        150
#        13668
#        36222
#        57866
#        71844
#        93999
#        107743
#        124820
#        140599
#        163359
#        178067
#
# Disc length: 2657 seconds
#
# Revision: 0
# Processed by: cddbd v1.5.2PL0 Copyright (c) Steve Scherf et al.
# Submitted via: ExactAudioCopy v0.99pb5
#
DISCID=9f0a5f0b
DTITLE=Евгений Гурин and Корсар - Маятник
DYEAR=2003
DGENRE=Blues
TTITLE0=Маятник
TTITLE1=Ворон (heavy version)
TTITLE2=Сестричка
TTITLE3=Позови меня ночью
TTITLE4=646 (растворитель)
TTITLE5=Скука
TTITLE6=Вольному воля
TTITLE7=Затяжка
TTITLE8=Последний приют
TTITLE9=Аромат цветов (live)
TTITLE10=Троллейбус
EXTD=
EXTT0=
EXTT1=
EXTT2=
EXTT3=
EXTT4=
EXTT5=
EXTT6=
EXTT7=
EXTT8=
EXTT9=
EXTT10=
PLAYORDER=
